<svg xmlns="http://www.w3.org/2000/svg" xmlns:xlink="http://www.w3.org/1999/xlink" viewBox="0 0 768 768" preserveAspectRatio="xMidYMid meet" version="1.0">
  <defs>
    <linearGradient id="lg" x1="0" y1="0" x2="0" y2="768" gradientUnits="userSpaceOnUse">
      <stop offset="0%"   stop-color="#a78bfa"/>
      <stop offset="50%"  stop-color="#7c3aed"/>
      <stop offset="100%" stop-color="#60a5fa"/>
    </linearGradient>
  </defs>
  <path fill="url(#lg)" d="M 216.457031 108.75 C 216.242188 109.367188 213.320312 118.3125 209.96875 128.625 C 206.617188 138.9375 203.347656 148.808594 202.710938 150.558594 C 201.484375 153.925781 201.53125 157.386719 203.261719 191.25 C 203.652344 198.882812 204.832031 223.351562 205.878906 245.625 C 206.925781 267.898438 207.964844 288.195312 208.191406 290.730469 L 208.601562 295.332031 L 218.492188 306.855469 C 229.351562 319.507812 253.027344 347.359375 265.898438 362.625 C 271.175781 368.875 276.480469 375.105469 281.808594 381.3125 C 286.039062 386.230469 289.5 390.476562 289.5 390.757812 C 289.5 391.21875 273.554688 410.789062 262.003906 424.5 L 257.265625 430.125 L 257.214844 456.75 L 257.167969 483.375 L 253.9375 474.375 C 252.160156 469.425781 250.425781 465.375 250.078125 465.375 C 249.457031 465.375 247.613281 471.148438 242.660156 488.625 C 241.257812 493.574219 237.054688 508.214844 233.320312 521.160156 C 229.585938 534.101562 226.738281 545.03125 226.996094 545.445312 C 227.25 545.855469 240.472656 559.058594 256.375 574.785156 C 272.28125 590.511719 287.921875 606.074219 291.132812 609.375 C 294.617188 612.957031 296.976562 614.882812 296.984375 614.152344 C 297 612.992188 286.839844 571.003906 286.039062 568.921875 C 285.828125 568.371094 288.609375 564.613281 292.265625 560.507812 C 295.902344 556.425781 303.429688 547.894531 309 541.550781 C 315.113281 534.585938 321.238281 527.628906 327.375 520.6875 C 331.914062 515.558594 335.710938 511.128906 335.820312 510.847656 C 335.925781 510.566406 331.707031 509.058594 326.445312 507.5 C 321.179688 505.941406 311.558594 502.941406 305.066406 500.828125 L 293.257812 496.992188 L 286.863281 485.804688 L 280.46875 474.621094 L 280.671875 459.414062 L 280.875 444.210938 L 315.375 473.777344 C 334.351562 490.039062 350.183594 503.648438 350.558594 504.019531 C 350.972656 504.425781 349.457031 506.878906 346.765625 510.160156 C 341.960938 516.023438 334.652344 525.066406 312.519531 552.519531 C 302.90625 564.445312 298.5 570.488281 298.5 571.742188 C 298.5 573.558594 304.769531 605.933594 307.113281 616.234375 C 307.945312 619.890625 308.738281 621.722656 309.605469 621.992188 C 310.304688 622.207031 315.769531 624.433594 321.75 626.9375 C 327.730469 629.441406 333.132812 631.46875 333.75 631.4375 C 334.367188 631.410156 344.832031 626.429688 357 620.371094 L 379.125 609.359375 L 379.539062 588.34375 L 358.226562 571.125 L 356.523438 564.75 C 355.585938 561.242188 354.804688 557.992188 354.785156 557.527344 C 354.765625 557.058594 361.363281 559.683594 369.445312 563.355469 L 384.140625 570.035156 L 398.34375 563.542969 C 406.15625 559.972656 412.691406 557.191406 412.863281 557.363281 C 413.292969 557.792969 409.640625 571.679688 408.9375 572.289062 C 408.628906 572.554688 405 575.421875 400.875 578.652344 C 396.75 581.886719 392.277344 585.546875 390.9375 586.789062 L 388.5 589.042969 L 388.5 598.601562 C 388.5 603.859375 388.753906 608.300781 389.0625 608.472656 C 389.371094 608.640625 396.542969 608.617188 405 608.417969 L 420.375 608.054688 L 432.984375 595.589844 C 439.921875 588.734375 445.796875 582.957031 446.042969 582.75 C 446.839844 582.082031 445.449219 584.351562 435.160156 600.484375 L 425.050781 616.347656 L 420.460938 616.789062 C 417.9375 617.03125 408.523438 617.601562 399.535156 618.058594 L 383.195312 618.890625 L 368.035156 624.15625 C 359.695312 627.050781 349.753906 630.46875 345.9375 631.75 C 342.121094 633.027344 339 634.3125 339 634.601562 C 339 635.5625 348.753906 651.675781 350.453125 653.515625 C 351.957031 655.148438 353.757812 655.570312 368.25 657.703125 L 384.375 660.078125 L 400.722656 657.503906 C 409.714844 656.085938 417.21875 654.78125 417.394531 654.605469 C 417.570312 654.429688 420.414062 649.746094 423.710938 644.203125 L 429.703125 634.125 L 444.914062 627.628906 L 460.125 621.136719 L 465.148438 596.128906 C 467.914062 582.378906 470.050781 570.75 469.898438 570.289062 C 469.75 569.828125 464.957031 563.71875 459.25 556.710938 C 446.972656 541.632812 422.824219 511.660156 419.460938 507.324219 L 417.09375 504.277344 L 423.199219 499.074219 C 436.230469 487.976562 452.511719 474.011719 482.4375 448.28125 L 487.5 443.929688 L 487.5 475.128906 L 481.3125 486.191406 C 475.382812 496.796875 475 497.289062 472.125 498.074219 C 470.476562 498.527344 463.554688 500.667969 456.75 502.835938 C 449.945312 505.003906 442.011719 507.386719 439.125 508.132812 C 436.238281 508.878906 433.570312 509.753906 433.195312 510.082031 C 432.308594 510.867188 433.917969 512.902344 448.59375 529.570312 L 471.046875 555.070312 C 476.636719 561.425781 481.453125 567.027344 481.75 567.515625 C 482.253906 568.359375 472.570312 608.90625 470.980469 612.621094 C 470.378906 614.019531 470.449219 614.316406 471.34375 614.121094 C 471.953125 613.984375 488.019531 598.351562 507.039062 579.378906 L 541.625 544.882812 L 534.097656 518.628906 C 529.960938 504.1875 524.832031 486.300781 522.707031 478.875 C 520.582031 471.449219 518.566406 465.082031 518.230469 464.722656 C 517.894531 464.363281 517.277344 465.207031 516.855469 466.597656 C 516.433594 467.988281 514.914062 472.5 513.476562 476.625 L 510.863281 484.125 L 510.804688 457.109375 L 510.75 430.097656 L 477.117188 388.550781 L 481.632812 380.460938 C 484.117188 376.015625 493.375 359.304688 502.203125 343.324219 L 518.257812 314.277344 L 513.886719 308.074219 C 511.480469 304.664062 502.988281 292.257812 495.011719 280.5 C 479.304688 257.347656 479.449219 257.550781 478.902344 258.09375 C 478.191406 258.808594 469.667969 307.898438 456.59375 386.59375 C 455.707031 391.941406 454.875 395.992188 454.742188 395.59375 C 454.613281 395.199219 452.855469 389.304688 450.839844 382.5 L 447.171875 370.125 L 449.335938 357 C 450.527344 349.78125 455.210938 321.496094 459.75 294.144531 C 464.289062 266.796875 468 243.746094 468 242.925781 C 468 242.109375 465.828125 235.964844 463.175781 229.28125 C 456.792969 213.199219 456.539062 212.5 457.355469 213.375 C 457.738281 213.789062 463.4375 221.382812 470.019531 230.25 C 476.605469 239.117188 487.507812 253.800781 494.253906 262.875 C 501.484375 272.605469 508.691406 282.355469 515.871094 292.125 C 521.015625 299.136719 526.59375 306.523438 528.265625 308.539062 C 531.410156 312.324219 530.644531 311.894531 554.25 323.046875 C 560.234375 325.886719 566.210938 328.738281 572.183594 331.605469 C 578.953125 334.851562 584.644531 337.355469 584.835938 337.164062 C 585.222656 336.777344 584.996094 334.8125 579.769531 293.25 C 577.421875 274.554688 575.402344 261.289062 574.519531 258.75 C 572.875 254 563.835938 231.335938 561.8125 226.875 C 561.0625 225.226562 559.984375 222.566406 559.414062 220.96875 C 558.847656 219.367188 558.042969 217.9375 557.628906 217.789062 C 556.910156 217.527344 533.976562 213.375 483.375 204.34375 C 470.585938 202.058594 457.625 199.695312 454.570312 199.089844 C 451.515625 198.480469 448.867188 198.132812 448.6875 198.308594 C 448.394531 198.605469 446.898438 205.441406 441.375 231.75 C 440.378906 236.492188 436.675781 253.875 433.144531 270.375 C 429.609375 286.875 423.8125 314.210938 420.257812 331.125 C 416.703125 348.039062 413.6875 362 413.558594 362.152344 C 413.425781 362.304688 406.976562 359.859375 399.222656 356.714844 C 391.464844 353.570312 384.679688 351 384.140625 351 C 383.601562 351 376.886719 353.554688 369.21875 356.679688 C 359.183594 360.765625 355.125 362.105469 354.722656 361.457031 C 354.417969 360.960938 353.601562 357.648438 352.90625 354.089844 C 351.808594 348.449219 346.414062 322.855469 335.96875 273.75 C 333.480469 262.019531 330.996094 250.28125 328.523438 238.546875 L 324.023438 217.214844 L 314.0625 207.046875 C 287.65625 180.085938 235.507812 126.777344 226.714844 117.75 C 219.863281 110.71875 216.730469 107.96875 216.457031 108.75 M 235.941406 165.269531 C 236.234375 166.039062 239.332031 171.945312 242.820312 178.394531 C 275.21875 238.273438 287.441406 261.746094 288.136719 265.417969 C 289.417969 272.226562 300.242188 333.703125 305.976562 366.75 C 308.085938 378.917969 310.234375 391.070312 310.75 393.75 L 311.683594 398.625 L 318.644531 372.640625 L 316.09375 354.882812 C 313.394531 336.117188 303.824219 267.683594 301.996094 254.109375 C 300.984375 246.578125 300.738281 245.875 297.949219 242.484375 C 294.8125 238.671875 275.265625 214.019531 266.839844 203.25 C 257.234375 190.976562 236.890625 165.367188 236.15625 164.625 C 235.660156 164.128906 235.589844 164.347656 235.941406 165.269531 M 336.792969 449.261719 C 337.4375 450.285156 342.136719 457.957031 347.238281 466.304688 C 352.34375 474.652344 356.585938 481.402344 356.671875 481.304688 C 356.757812 481.207031 356.648438 476.976562 356.433594 471.90625 L 356.042969 462.6875 L 348.457031 456.859375 C 344.289062 453.65625 339.695312 450.214844 338.25 449.214844 L 335.625 447.398438 Z M 422.625 454.5625 C 417.675781 458.285156 413.304688 461.652344 412.914062 462.039062 C 412.289062 462.664062 410.824219 480.785156 411.355469 481.34375 C 411.46875 481.464844 415.785156 474.714844 420.941406 466.34375 C 429.976562 451.679688 432.296875 447.726562 431.839844 447.769531 C 431.722656 447.78125 427.574219 450.835938 422.625 454.5625 M 440.964844 577.890625 C 443.628906 579.324219 446.035156 580.5 446.316406 580.5 C 446.953125 580.5 449.242188 585.238281 449.269531 586.613281 C 449.28125 587.167969 449.898438 588.976562 450.644531 590.625 L 451.996094 593.625 L 452.453125 585.019531 C 452.707031 580.285156 452.847656 576.367188 452.769531 576.3125 C 452.691406 576.253906 448.914062 576 444.375 575.746094 L 436.125 575.277344 Z M 440.964844 577.890625 " fill-opacity="1" fill-rule="evenodd"/></svg>